<svg width="34" height="33" viewBox="0 0 34 33" fill="none" xmlns="http://www.w3.org/2000/svg">
<g id="Link">
<path id="Vector" d="M31.5181 11.3734C31.4664 13.1686 30.7282 14.8756 29.4556 16.1429L24.9761 20.625C24.3237 21.281 23.5477 21.801 22.6929 22.1551C21.8382 22.5091 20.9217 22.6901 19.9965 22.6875H19.99C19.0491 22.6868 18.1178 22.4976 17.2512 22.131C16.3846 21.7643 15.6002 21.2277 14.9445 20.5529C14.2887 19.878 13.7749 19.0786 13.4333 18.2018C13.0917 17.3251 12.9293 16.3887 12.9556 15.4481C12.9633 15.1746 13.0793 14.9154 13.2782 14.7274C13.477 14.5395 13.7424 14.4382 14.0159 14.4459C14.2894 14.4536 14.5486 14.5696 14.7366 14.7684C14.9246 14.9673 15.0258 15.2326 15.0181 15.5061C14.9994 16.1712 15.1141 16.8333 15.3555 17.4532C15.597 18.0732 15.9602 18.6385 16.4238 19.1157C16.8875 19.5929 17.442 19.9723 18.0548 20.2316C18.6675 20.4908 19.326 20.6246 19.9913 20.625C20.6454 20.6267 21.2932 20.4987 21.8975 20.2484C22.5018 19.9982 23.0504 19.6307 23.5118 19.1671L27.9913 14.6876C28.9155 13.7517 29.4319 12.4882 29.4278 11.173C29.4237 9.85768 28.8993 8.59744 27.9693 7.66739C27.0392 6.73735 25.779 6.21303 24.4637 6.20891C23.1484 6.2048 21.885 6.72122 20.9491 7.64543L19.5311 9.06339C19.3362 9.24863 19.0766 9.35037 18.8076 9.34693C18.5387 9.34348 18.2818 9.23513 18.0916 9.04497C17.9015 8.8548 17.7931 8.59787 17.7897 8.32896C17.7862 8.06005 17.888 7.80044 18.0732 7.60547L19.4912 6.1875C20.1454 5.53308 20.9221 5.01395 21.7769 4.65977C22.6318 4.30559 23.5481 4.12329 24.4734 4.12329C25.3987 4.12329 26.315 4.30559 27.1699 4.65977C28.0247 5.01395 28.8014 5.53308 29.4556 6.1875C30.1332 6.86678 30.6655 7.67684 31.0201 8.56838C31.3747 9.45992 31.5441 10.4143 31.5181 11.3734ZM14.6314 23.9327L13.2134 25.3507C12.751 25.8163 12.2005 26.1852 11.5942 26.4362C10.9878 26.6871 10.3376 26.8151 9.68141 26.8125C8.69696 26.8117 7.73483 26.5191 6.91658 25.9717C6.09834 25.4244 5.46071 24.6467 5.08425 23.7371C4.70779 22.8275 4.60939 21.8267 4.8015 20.8611C4.9936 19.8956 5.46759 19.0087 6.16356 18.3124L10.6353 13.8329C11.3396 13.1249 12.2406 12.645 13.2212 12.4555C14.2017 12.2661 15.2166 12.3759 16.134 12.7706C17.0514 13.1654 17.8288 13.8269 18.3655 14.6691C18.9021 15.5114 19.173 16.4956 19.1431 17.4939C19.1354 17.7674 19.2367 18.0327 19.4247 18.2316C19.6126 18.4304 19.8719 18.5464 20.1454 18.5541C20.4189 18.5618 20.6842 18.4605 20.8831 18.2726C21.0819 18.0846 21.1979 17.8254 21.2056 17.5519C21.2304 16.5943 21.0603 15.6416 20.7058 14.7517C20.3513 13.8618 19.8196 13.0532 19.1431 12.375C17.8221 11.0545 16.0307 10.3127 14.1628 10.3127C12.295 10.3127 10.5036 11.0545 9.18255 12.375L4.70563 16.8545C3.72108 17.8386 3.05037 19.0925 2.77824 20.4578C2.50611 21.823 2.64479 23.2382 3.17674 24.5247C3.70869 25.8111 4.61005 26.911 5.7669 27.6853C6.92376 28.4596 8.28418 28.8736 9.67626 28.875C10.6016 28.8777 11.5184 28.6967 12.3733 28.3427C13.2283 27.9887 14.0046 27.4686 14.6572 26.8125L16.0752 25.3945C16.2421 25.198 16.3292 24.946 16.3195 24.6883C16.3098 24.4306 16.2039 24.1859 16.0227 24.0024C15.8415 23.819 15.5982 23.7101 15.3406 23.6972C15.0831 23.6842 14.83 23.7683 14.6314 23.9327Z" fill="black"/>
</g>
</svg>
