<svg width="43" height="33" viewBox="0 0 43 33" fill="none" xmlns="http://www.w3.org/2000/svg">
<path id="Vector" d="M40.9429 0H1.63772C1.20337 0 0.786808 0.173839 0.479676 0.483274C0.172545 0.792709 0 1.21239 0 1.65V29.7C0 30.5752 0.345089 31.4146 0.959352 32.0335C1.57362 32.6523 2.40673 33 3.27543 33H39.3052C40.1739 33 41.007 32.6523 41.6213 32.0335C42.2356 31.4146 42.5806 30.5752 42.5806 29.7V1.65C42.5806 1.21239 42.4081 0.792709 42.101 0.483274C41.7938 0.173839 41.3773 0 40.9429 0ZM36.7319 3.3L21.2903 17.5622L5.8487 3.3H36.7319ZM39.3052 29.7H3.27543V5.40169L20.1828 21.0169C20.485 21.2963 20.8802 21.4514 21.2903 21.4514C21.7005 21.4514 22.0957 21.2963 22.3978 21.0169L39.3052 5.40169V29.7Z" fill="black"/>
</svg>
