<svg width="33" height="33" viewBox="0 0 33 33" fill="none" xmlns="http://www.w3.org/2000/svg">
<path id="Vector" d="M25.9587 19.1717L20.8813 16.6333C20.6814 16.5337 20.4588 16.4886 20.2359 16.5025C20.0131 16.5164 19.7978 16.5889 19.6119 16.7126L17.2811 18.2674C16.2111 17.6793 15.3306 16.7988 14.7424 15.7289L16.2973 13.3983C16.421 13.2124 16.4935 12.9972 16.5074 12.7744C16.5214 12.5515 16.4763 12.3289 16.3767 12.1291L13.838 7.05216C13.7327 6.83968 13.5701 6.66092 13.3685 6.53613C13.1668 6.41135 12.9343 6.34554 12.6971 6.34615C11.0139 6.34615 9.39954 7.01476 8.20929 8.2049C7.01904 9.39503 6.35036 11.0092 6.35036 12.6923C6.35456 16.3938 7.827 19.9426 10.4446 22.56C13.0623 25.1774 16.6113 26.6496 20.3132 26.6538C21.1467 26.6538 21.972 26.4897 22.742 26.1708C23.5121 25.8518 24.2117 25.3844 24.8011 24.7951C25.3904 24.2058 25.8579 23.5062 26.1769 22.7363C26.4958 21.9663 26.66 21.1411 26.66 20.3077C26.6602 20.0719 26.5946 19.8407 26.4708 19.6401C26.3469 19.4394 26.1696 19.2772 25.9587 19.1717ZM20.3132 24.1154C17.2844 24.112 14.3806 22.9074 12.2388 20.7659C10.0971 18.6244 8.89243 15.7209 8.88907 12.6923C8.88882 11.812 9.19366 10.9587 9.75169 10.2778C10.3097 9.5969 11.0865 9.13036 11.9498 8.9576L13.7713 12.6066L12.2211 14.9135C12.1053 15.0872 12.0341 15.2869 12.0139 15.4947C11.9937 15.7025 12.0251 15.9121 12.1053 16.105C13.0135 18.2633 14.7307 19.9803 16.8892 20.8884C17.0826 20.9721 17.2938 21.0064 17.5038 20.9881C17.7137 20.9699 17.9159 20.8996 18.0919 20.7837L20.41 19.2384L24.0594 21.0597C23.8853 21.9239 23.4167 22.701 22.7335 23.2582C22.0503 23.8155 21.1949 24.1184 20.3132 24.1154ZM16.5052 3.92947e-07C13.6562 -0.000621227 10.8556 0.736294 8.37602 2.13902C5.89639 3.54174 3.82221 5.56249 2.35535 8.00456C0.888494 10.4466 0.0789404 13.2268 0.00548669 16.0746C-0.067967 18.9223 0.597182 21.7406 1.93619 24.255L0.135297 29.6572C-0.0138761 30.1044 -0.0355247 30.5844 0.0727781 31.0433C0.181081 31.5022 0.415055 31.9218 0.748476 32.2552C1.0819 32.5886 1.50159 32.8225 1.96051 32.9308C2.41943 33.0391 2.89945 33.0175 3.34676 32.8683L8.74944 31.0676C10.9625 32.2446 13.4146 32.902 15.9197 32.9898C18.4248 33.0777 20.917 32.5938 23.2072 31.5749C25.4973 30.5559 27.5252 29.0286 29.1368 27.109C30.7485 25.1894 31.9017 22.9278 32.5087 20.4961C33.1158 18.0643 33.1609 15.5262 32.6405 13.0744C32.12 10.6226 31.0479 8.32161 29.5053 6.34602C27.9627 4.37043 25.9903 2.77219 23.7378 1.67262C21.4853 0.57304 19.0118 0.00102844 16.5052 3.92947e-07ZM16.5052 30.4615C14.0505 30.4632 11.639 29.8169 9.51423 28.5878C9.35866 28.4976 9.1857 28.4415 9.0068 28.4232C8.82791 28.4049 8.64716 28.4247 8.47653 28.4815L2.54231 30.4615L4.52091 24.5279C4.57795 24.3574 4.5981 24.1767 4.58005 23.9978C4.562 23.819 4.50614 23.646 4.41619 23.4903C2.87705 20.8295 2.2591 17.7352 2.65818 14.6875C3.05727 11.6397 4.45109 8.80881 6.62341 6.63394C8.79574 4.45907 11.6251 3.06181 14.6727 2.65892C17.7203 2.25602 20.8156 2.87001 23.4786 4.40563C26.1415 5.94126 28.2233 8.31268 29.4008 11.152C30.5783 13.9914 30.7858 17.1399 29.9912 20.1092C29.1965 23.0785 27.444 25.7026 25.0056 27.5744C22.5673 29.4462 19.5793 30.461 16.5052 30.4615Z" fill="black"/>
</svg>
